<svg xmlns="http://www.w3.org/2000/svg" xmlns:xlink="http://www.w3.org/1999/xlink" version="1.1" x="0px" y="0px" viewBox="0 0 64 80" enable-background="new 0 0 64 64" xml:space="preserve"><g display="none"><rect x="-10.495" y="-306.779" display="inline" fill="#000000" width="787" height="375.042"/></g><g display="none"><g display="inline"><path d="M39.754,0H24.246v24.249H-0.017V39.75h24.263V64h15.508V39.75h24.262V24.249H39.754V0z M62.016,26.249V37.75H37.754V62    H26.246V37.75H1.983V26.249h24.263V2h11.508v24.249H62.016z"/><rect x="30.959" y="5.974" width="2" height="9.595"/><rect x="30.959" y="48.431" width="2" height="9.596"/><rect x="5.944" y="31" width="9.59" height="2"/><rect x="48.381" y="31" width="9.591" height="2"/></g></g><g display="none"><rect x="13.756" y="13.756" display="inline" fill="#000000" width="36.488" height="36.488"/><g display="inline"><polygon fill="#000000" stroke="#000000" stroke-width="2" stroke-miterlimit="10" points="63.016,25.249 38.754,25.249 38.754,1     25.246,1 25.246,25.249 0.984,25.249 0.984,38.751 25.246,38.751 25.246,63 38.754,63 38.754,38.751 63.016,38.751   "/><line fill="#000000" stroke="#000000" stroke-width="2" stroke-miterlimit="10" x1="31.958" y1="5.974" x2="31.958" y2="15.569"/><line fill="#000000" stroke="#000000" stroke-width="2" stroke-miterlimit="10" x1="31.958" y1="48.431" x2="31.958" y2="58.026"/><line fill="#000000" stroke="#000000" stroke-width="2" stroke-miterlimit="10" x1="5.945" y1="32" x2="15.535" y2="32"/><line fill="#000000" stroke="#000000" stroke-width="2" stroke-miterlimit="10" x1="48.382" y1="32" x2="57.972" y2="32"/></g></g><g display="none"><g display="inline"><rect x="13.756" y="13.756" fill="#000000" width="36.488" height="36.488"/></g><g display="inline"><g><polygon fill="#000000" points="63.016,25.249 38.754,25.249 38.754,1 25.246,1 25.246,25.249 0.984,25.249 0.984,38.751      25.246,38.751 25.246,63 38.754,63 38.754,38.751 63.016,38.751    "/><path d="M39.754,64H24.246V39.75H-0.017V24.249h24.263V0h15.508v24.249h24.262V39.75H39.754V64z M26.246,62h11.508V37.75h24.262     V26.249H37.754V2H26.246v24.249H1.983V37.75h24.263V62z"/></g><g><rect x="30.959" y="5.974" width="2" height="9.595"/></g><g><rect x="30.959" y="48.431" width="2" height="9.596"/></g><g><line fill="#000000" x1="5.945" y1="32" x2="15.535" y2="32"/><rect x="5.944" y="31" width="9.59" height="2"/></g><g><line fill="#000000" x1="48.382" y1="32" x2="57.972" y2="32"/><rect x="48.381" y="31" width="9.591" height="2"/></g></g></g><g display="none"><g display="inline"><polygon points="64,25.035 38.968,25.035 38.968,0.017 25.032,0.017 25.032,25.035 0,25.035 0,38.965 25.032,38.965     25.032,63.983 38.968,63.983 38.968,38.965 64,38.965   "/><polygon opacity="0.25" fill="#000000" points="32.012,63.983 25.032,63.983 25.032,38.965 0,38.965 0,25.035 25.032,25.035     25.032,0.017 32.012,0.017   "/><line fill="#000000" stroke="#FFFFFF" stroke-width="2" stroke-miterlimit="10" x1="31.957" y1="5.148" x2="31.957" y2="15.048"/><line fill="#000000" stroke="#FFFFFF" stroke-width="2" stroke-miterlimit="10" x1="31.957" y1="48.952" x2="31.957" y2="58.852"/><line fill="#000000" stroke="#FFFFFF" stroke-width="2" stroke-miterlimit="10" x1="5.118" y1="32" x2="15.013" y2="32"/><line fill="#000000" stroke="#FFFFFF" stroke-width="2" stroke-miterlimit="10" x1="48.901" y1="32" x2="58.796" y2="32"/></g></g><g display="none"><g display="inline"><circle fill="#000000" cx="32" cy="32" r="32"/></g><g display="inline"><g><polygon points="54.662,27.068 36.935,27.068 36.935,9.35 27.065,9.35 27.065,27.068 9.338,27.068 9.338,36.932 27.065,36.932      27.065,54.65 36.935,54.65 36.935,36.932 54.662,36.932    "/></g><g opacity="0.25"><polygon fill="#000000" points="32.009,54.65 27.065,54.65 27.065,36.932 9.338,36.932 9.338,27.068 27.065,27.068 27.065,9.35      32.009,9.35    "/></g><g><rect x="31.261" y="12.984" fill="#000000" width="1.416" height="7.011"/></g><g><rect x="31.261" y="44.005" fill="#000000" width="1.416" height="7.011"/></g><g><rect x="12.963" y="31.292" fill="#000000" width="7.007" height="1.416"/></g><g><rect x="43.969" y="31.292" fill="#000000" width="7.007" height="1.416"/></g></g></g><g><path d="M38.968,0.017H25.032v25.018H0v13.929h25.032v25.018h13.936V38.965H64V25.035H38.968V0.017z M15.013,33H5.118v-2h9.895V33z    M32.957,58.852h-2v-9.899h2V58.852z M32.957,15.048h-2V5.149h2V15.048z M48.901,31h9.895v2h-9.895V31z"/></g><g display="none"><rect x="13.756" y="13.756" display="inline" fill="#000000" width="36.488" height="36.488"/><g display="inline"><polygon fill="#000000" stroke="#000000" stroke-width="2" stroke-miterlimit="10" points="63.016,25.249 38.754,25.249 38.754,1     25.246,1 25.246,25.249 0.984,25.249 0.984,38.751 25.246,38.751 25.246,63 38.754,63 38.754,38.751 63.016,38.751   "/><line fill="#000000" stroke="#000000" stroke-width="2" stroke-miterlimit="10" x1="31.958" y1="5.974" x2="31.958" y2="15.569"/><line fill="#000000" stroke="#000000" stroke-width="2" stroke-miterlimit="10" x1="31.958" y1="48.431" x2="31.958" y2="58.026"/><line fill="#000000" stroke="#000000" stroke-width="2" stroke-miterlimit="10" x1="5.945" y1="32" x2="15.535" y2="32"/><line fill="#000000" stroke="#000000" stroke-width="2" stroke-miterlimit="10" x1="48.382" y1="32" x2="57.972" y2="32"/></g></g><text x="0" y="79" fill="#000000" font-size="5px" font-weight="bold" font-family="'Helvetica Neue', Helvetica, Arial-Unicode, Arial, Sans-serif">Created by Icons By Alfredo</text><text x="0" y="84" fill="#000000" font-size="5px" font-weight="bold" font-family="'Helvetica Neue', Helvetica, Arial-Unicode, Arial, Sans-serif">from the Noun Project</text></svg>