<svg xmlns="http://www.w3.org/2000/svg" xmlns:xlink="http://www.w3.org/1999/xlink" version="1.1" x="0px" y="0px" viewBox="0 0 100 125" style="enable-background:new 0 0 100 100;" xml:space="preserve"><path d="M85.5,37H63V14.5c0-3.9-3.1-6.5-7-6.5H44c-3.9,0-7,2.6-7,6.5V37H14.5C10.6,37,7,40.1,7,44v12  c0,3.9,3.6,7,7.5,7H37v22.5c0,3.9,3.1,7.5,7,7.5h12c3.9,0,7-3.6,7-7.5V63h22.5c3.9,0,6.5-3.1,6.5-7V44C92,40.1,89.4,37,85.5,37z   M27,57.6L14.2,50L27,42.4V57.6z M49.8,84.9L42.2,72h15.3L49.8,84.9z M49.8,57.6c-4.2,0-7.6-3.4-7.6-7.6s3.4-7.6,7.6-7.6  s7.6,3.4,7.6,7.6S54,57.6,49.8,57.6z M42.2,28l7.6-13.3L57.5,28H42.2z M72,57.6V42.4L85.5,50L72,57.6z"/><text x="0" y="115" fill="#000000" font-size="5px" font-weight="bold" font-family="'Helvetica Neue', Helvetica, Arial-Unicode, Arial, Sans-serif">Created by Angelo Troiano</text><text x="0" y="120" fill="#000000" font-size="5px" font-weight="bold" font-family="'Helvetica Neue', Helvetica, Arial-Unicode, Arial, Sans-serif">from the Noun Project</text></svg>